<mxfile host="65bd71144e" modified="2021-03-10T06:13:05.462Z" agent="5.0 (Windows NT 10.0; Win64; x64) AppleWebKit/537.36 (KHTML, like Gecko) Code/1.54.1 Chrome/87.0.4280.141 Electron/11.3.0 Safari/537.36" version="14.2.4" etag="Gx1a87LyVnfxlMhexW8e" type="embed">
    <diagram id="lUZ-DIO8xURiSCUbZxDw" name="Page-1">
        <mxGraphModel dx="1118" dy="647" grid="1" gridSize="10" guides="1" tooltips="1" connect="1" arrows="1" fold="1" page="1" pageScale="1" pageWidth="827" pageHeight="1169" background="#EEEEEE" math="0" shadow="0">
            <root>
                <mxCell id="0"/>
                <mxCell id="1" parent="0"/>
                <mxCell id="2" value="0(虚拟节点)" style="rounded=0;whiteSpace=wrap;html=1;fillColor=#F5AB50;strokeColor=#909090;fontColor=#1A1A1A;" vertex="1" parent="1">
                    <mxGeometry x="220" y="120" width="120" height="60" as="geometry"/>
                </mxCell>
                <mxCell id="3" value="0(线程B节点)" style="rounded=0;whiteSpace=wrap;html=1;fillColor=#F5AB50;strokeColor=#909090;fontColor=#1A1A1A;" vertex="1" parent="1">
                    <mxGeometry x="410" y="120" width="120" height="60" as="geometry"/>
                </mxCell>
                <mxCell id="4" value="" style="endArrow=classic;startArrow=classic;html=1;strokeColor=#182E3E;fontColor=#1A1A1A;exitX=1;exitY=0.5;exitDx=0;exitDy=0;" edge="1" parent="1" source="2" target="3">
                    <mxGeometry width="50" height="50" relative="1" as="geometry">
                        <mxPoint x="490" y="410" as="sourcePoint"/>
                        <mxPoint x="540" y="360" as="targetPoint"/>
                    </mxGeometry>
                </mxCell>
                <mxCell id="6" value="图1" style="text;html=1;strokeColor=none;fillColor=none;align=center;verticalAlign=middle;whiteSpace=wrap;rounded=0;sketch=0;fontColor=#1A1A1A;" vertex="1" parent="1">
                    <mxGeometry x="360" y="190" width="40" height="20" as="geometry"/>
                </mxCell>
                <mxCell id="7" value="-1(执行线程)" style="rounded=0;whiteSpace=wrap;html=1;fillColor=#F5AB50;strokeColor=#909090;fontColor=#1A1A1A;" vertex="1" parent="1">
                    <mxGeometry x="100" y="330" width="120" height="60" as="geometry"/>
                </mxCell>
                <mxCell id="8" value="0(park线程A)" style="rounded=0;whiteSpace=wrap;html=1;fillColor=#F5AB50;strokeColor=#909090;fontColor=#1A1A1A;" vertex="1" parent="1">
                    <mxGeometry x="290" y="330" width="120" height="60" as="geometry"/>
                </mxCell>
                <mxCell id="9" value="" style="endArrow=classic;startArrow=classic;html=1;strokeColor=#182E3E;fontColor=#1A1A1A;exitX=1;exitY=0.5;exitDx=0;exitDy=0;" edge="1" parent="1" source="7" target="8">
                    <mxGeometry width="50" height="50" relative="1" as="geometry">
                        <mxPoint x="370" y="620" as="sourcePoint"/>
                        <mxPoint x="420" y="570" as="targetPoint"/>
                    </mxGeometry>
                </mxCell>
                <mxCell id="10" value="0(新增线程节点)" style="rounded=0;whiteSpace=wrap;html=1;sketch=0;strokeColor=#909090;fillColor=#F5AB50;fontColor=#1A1A1A;" vertex="1" parent="1">
                    <mxGeometry x="470" y="330" width="120" height="60" as="geometry"/>
                </mxCell>
                <mxCell id="11" value="" style="endArrow=classic;startArrow=classic;html=1;strokeColor=#182E3E;fontColor=#1A1A1A;exitX=1;exitY=0.5;exitDx=0;exitDy=0;entryX=0;entryY=0.5;entryDx=0;entryDy=0;" edge="1" parent="1" source="8" target="10">
                    <mxGeometry width="50" height="50" relative="1" as="geometry">
                        <mxPoint x="350" y="160" as="sourcePoint"/>
                        <mxPoint x="420" y="160" as="targetPoint"/>
                        <Array as="points"/>
                    </mxGeometry>
                </mxCell>
                <mxCell id="12" value="图2" style="text;html=1;strokeColor=none;fillColor=none;align=center;verticalAlign=middle;whiteSpace=wrap;rounded=0;sketch=0;fontColor=#1A1A1A;" vertex="1" parent="1">
                    <mxGeometry x="360" y="420" width="40" height="20" as="geometry"/>
                </mxCell>
            </root>
        </mxGraphModel>
    </diagram>
</mxfile>